<?xml version="1.0" encoding="UTF-8" standalone="no"?>
<!-- Created with Inkscape (http://www.inkscape.org/) -->

<svg
   xmlns:dc="http://purl.org/dc/elements/1.1/"
   xmlns:cc="http://creativecommons.org/ns#"
   xmlns:rdf="http://www.w3.org/1999/02/22-rdf-syntax-ns#"
   xmlns:svg="http://www.w3.org/2000/svg"
   xmlns="http://www.w3.org/2000/svg"
   xmlns:sodipodi="http://sodipodi.sourceforge.net/DTD/sodipodi-0.dtd"
   xmlns:inkscape="http://www.inkscape.org/namespaces/inkscape"
   width="210mm"
   height="297mm"
   viewBox="0 0 210 297"
   version="1.1"
   id="svg8"
   inkscape:version="0.92.4 5da689c313, 2019-01-14"
   sodipodi:docname="3dvelop_logo_border_transparentback.svg"
   inkscape:export-filename="/home/ec/Pictures/3dvelop_logo_border_transparentback.png"
   inkscape:export-xdpi="300"
   inkscape:export-ydpi="300">
  <defs
     id="defs2">
    <inkscape:perspective
       sodipodi:type="inkscape:persp3d"
       inkscape:vp_x="0 : 148.5 : 1"
       inkscape:vp_y="0 : 1000 : 0"
       inkscape:vp_z="210 : 148.5 : 1"
       inkscape:persp3d-origin="105 : 99 : 1"
       id="perspective4919" />
  </defs>
  <sodipodi:namedview
     id="base"
     pagecolor="#ffffff"
     bordercolor="#666666"
     borderopacity="1.0"
     inkscape:pageopacity="0"
     inkscape:pageshadow="2"
     inkscape:zoom="1"
     inkscape:cx="2918.2669"
     inkscape:cy="319.8356"
     inkscape:document-units="mm"
     inkscape:current-layer="layer1"
     showgrid="false"
     showguides="true"
     inkscape:snap-text-baseline="false"
     showborder="false"
     inkscape:window-width="3840"
     inkscape:window-height="2022"
     inkscape:window-x="0"
     inkscape:window-y="60"
     inkscape:window-maximized="1"
     inkscape:snap-nodes="true"
     inkscape:snap-intersection-paths="false"
     inkscape:object-paths="false"
     inkscape:snap-others="false"
     inkscape:snap-grids="false"
     inkscape:snap-to-guides="false"
     inkscape:snap-global="true"
     inkscape:object-nodes="true">
    <inkscape:grid
       type="xygrid"
       id="grid4543" />
  </sodipodi:namedview>
  <metadata
     id="metadata5">
    <rdf:RDF>
      <cc:Work
         rdf:about="">
        <dc:format>image/svg+xml</dc:format>
        <dc:type
           rdf:resource="http://purl.org/dc/dcmitype/StillImage" />
        <dc:title></dc:title>
      </cc:Work>
    </rdf:RDF>
  </metadata>
  <g
     inkscape:label="Layer 1"
     inkscape:groupmode="layer"
     id="layer1">
    <flowRoot
       xml:space="preserve"
       id="flowRoot4553"
       style="font-style:normal;font-variant:normal;font-weight:normal;font-stretch:normal;font-size:1.2399298px;line-height:1.25;font-family:'Fira Sans';-inkscape-font-specification:'Fira Sans, Normal';font-variant-ligatures:normal;font-variant-caps:normal;font-variant-numeric:normal;font-feature-settings:normal;text-align:start;letter-spacing:0px;word-spacing:0px;writing-mode:lr-tb;text-anchor:start;fill:#000000;fill-opacity:1;stroke:none"
       transform="matrix(14.59486,0,0,12.778822,-8371.6426,-1885.5456)"><flowRegion
         id="flowRegion4555"
         style="font-style:normal;font-variant:normal;font-weight:normal;font-stretch:normal;font-size:1.2399298px;font-family:'Fira Sans';-inkscape-font-specification:'Fira Sans, Normal';font-variant-ligatures:normal;font-variant-caps:normal;font-variant-numeric:normal;font-feature-settings:normal;text-align:start;writing-mode:lr-tb;text-anchor:start"><rect
           id="rect4557"
           width="349"
           height="211"
           x="586"
           y="150.51968"
           style="font-style:normal;font-variant:normal;font-weight:normal;font-stretch:normal;font-size:1.2399298px;font-family:'Fira Sans';-inkscape-font-specification:'Fira Sans, Normal';font-variant-ligatures:normal;font-variant-caps:normal;font-variant-numeric:normal;font-feature-settings:normal;text-align:start;writing-mode:lr-tb;text-anchor:start" /></flowRegion><flowPara
         id="flowPara4559"
         style="font-style:normal;font-variant:normal;font-weight:normal;font-stretch:normal;font-size:1.2399298px;font-family:'Fira Sans';-inkscape-font-specification:'Fira Sans, Normal';font-variant-ligatures:normal;font-variant-caps:normal;font-variant-numeric:normal;font-feature-settings:normal;text-align:start;writing-mode:lr-tb;text-anchor:start" /></flowRoot>    <flowRoot
       xml:space="preserve"
       id="flowRoot100"
       style="fill:black;fill-opacity:1;stroke:none;font-family:sans-serif;font-style:normal;font-weight:normal;font-size:40px;line-height:1.25;letter-spacing:0px;word-spacing:0px"><flowRegion
         id="flowRegion102"><rect
           id="rect104"
           width="1084.7018"
           height="531.74432"
           x="680.23669"
           y="159.44025" /></flowRegion><flowPara
         id="flowPara106" /></flowRoot>    <flowRoot
       xml:space="preserve"
       id="flowRoot1496"
       style="fill:black;fill-opacity:1;stroke:none;font-family:sans-serif;font-style:normal;font-weight:normal;font-size:40px;line-height:1.25;letter-spacing:0px;word-spacing:0px"><flowRegion
         id="flowRegion1498"><rect
           id="rect1500"
           width="393.15137"
           height="523.25903"
           x="-2469.2168"
           y="862.30438" /></flowRegion><flowPara
         id="flowPara1502" /></flowRoot>    <flowRoot
       xml:space="preserve"
       id="flowRoot1508"
       style="fill:black;fill-opacity:1;stroke:none;font-family:sans-serif;font-style:normal;font-weight:normal;font-size:40px;line-height:1.25;letter-spacing:0px;word-spacing:0px"><flowRegion
         id="flowRegion1510"><rect
           id="rect1512"
           width="82.024384"
           height="62.225395"
           x="-2896.3093"
           y="757.65259" /></flowRegion><flowPara
         id="flowPara1514" /></flowRoot>    <flowRoot
       xml:space="preserve"
       id="flowRoot1516"
       style="fill:black;fill-opacity:1;stroke:none;font-family:sans-serif;font-style:normal;font-weight:normal;font-size:40px;line-height:1.25;letter-spacing:0px;word-spacing:0px"><flowRegion
         id="flowRegion1518"><rect
           id="rect1520"
           width="376.18082"
           height="444.06305"
           x="-2616.2952"
           y="941.50037" /></flowRegion><flowPara
         id="flowPara1522" /></flowRoot>    <flowRoot
       xml:space="preserve"
       id="flowRoot1573"
       style="fill:black;fill-opacity:1;stroke:none;font-family:sans-serif;font-style:normal;font-weight:normal;font-size:40px;line-height:1.25;letter-spacing:0px;word-spacing:0px"><flowRegion
         id="flowRegion1575"><rect
           id="rect1577"
           width="472"
           height="2108"
           x="-1010"
           y="542.51971" /></flowRegion><flowPara
         id="flowPara1579" /></flowRoot>    <flowRoot
       xml:space="preserve"
       id="flowRoot1581"
       style="fill:black;fill-opacity:1;stroke:none;font-family:sans-serif;font-style:normal;font-weight:normal;font-size:40px;line-height:1.25;letter-spacing:0px;word-spacing:0px"><flowRegion
         id="flowRegion1583"><rect
           id="rect1585"
           width="482"
           height="2098"
           x="-678"
           y="656.51971" /></flowRegion><flowPara
         id="flowPara1587" /></flowRoot>    <flowRoot
       xml:space="preserve"
       id="flowRoot984"
       style="fill:black;fill-opacity:1;stroke:none;font-family:'Fira Sans';font-style:normal;font-weight:normal;font-size:192px;line-height:1.25;letter-spacing:0px;word-spacing:0px;-inkscape-font-specification:'Fira Sans, Normal';font-stretch:normal;font-variant:normal;text-anchor:start;text-align:start;writing-mode:lr;font-variant-ligatures:normal;font-variant-caps:normal;font-variant-numeric:normal;font-feature-settings:normal;"><flowRegion
         id="flowRegion986"
         style="-inkscape-font-specification:'Fira Sans, Normal';font-family:'Fira Sans';font-weight:normal;font-style:normal;font-stretch:normal;font-variant:normal;font-size:192px;text-anchor:start;text-align:start;writing-mode:lr;font-variant-ligatures:normal;font-variant-caps:normal;font-variant-numeric:normal;font-feature-settings:normal;"><rect
           id="rect988"
           width="1396"
           height="526"
           x="-42"
           y="2746.5198"
           style="-inkscape-font-specification:'Fira Sans, Normal';font-family:'Fira Sans';font-weight:normal;font-style:normal;font-stretch:normal;font-variant:normal;font-size:192px;text-anchor:start;text-align:start;writing-mode:lr;font-variant-ligatures:normal;font-variant-caps:normal;font-variant-numeric:normal;font-feature-settings:normal;" /></flowRegion><flowPara
         id="flowPara990" /></flowRoot>    <flowRoot
       xml:space="preserve"
       id="flowRoot1000"
       style="fill:black;fill-opacity:1;stroke:none;font-family:sans-serif;font-style:normal;font-weight:normal;font-size:40px;line-height:1.25;letter-spacing:0px;word-spacing:0px"><flowRegion
         id="flowRegion1002"><rect
           id="rect1004"
           width="3100"
           height="476"
           x="2518"
           y="2774.5198" /></flowRegion><flowPara
         id="flowPara1006" /></flowRoot>    <flowRoot
       xml:space="preserve"
       id="flowRoot1321"
       style="fill:black;fill-opacity:1;stroke:none;font-family:sans-serif;font-style:normal;font-weight:normal;font-size:40px;line-height:1.25;letter-spacing:0px;word-spacing:0px"><flowRegion
         id="flowRegion1323"><rect
           id="rect1325"
           width="988.53528"
           height="445.47726"
           x="7532.1016"
           y="708.15509" /></flowRegion><flowPara
         id="flowPara1327" /></flowRoot>    <g
       id="g913"
       transform="translate(-0.88865286)">
      <path
         d="m 860.35395,202.76993 q 4.29902,0 7.34991,1.57631 3.12014,1.57629 4.7149,4.24915 1.66414,2.67285 1.66414,5.82545 0,4.18062 -2.49615,6.922 -2.42688,2.67287 -6.51778,3.63235 4.64565,0.4112 7.55791,3.28967 2.91214,2.87846 2.91214,7.81296 0,3.97502 -1.9415,7.19615 -1.94139,3.22114 -5.54703,5.07157 -3.60564,1.7819 -8.32054,1.7819 -4.22965,0 -7.76591,-1.50776 -3.53627,-1.5763 -6.17115,-4.66037 l 3.81364,-3.49527 q 2.28814,2.33018 4.64565,3.42674 2.42688,1.09655 5.26965,1.09655 4.36839,0 6.86453,-2.39871 2.49625,-2.46725 2.49625,-6.57933 0,-4.52331 -2.35751,-6.37374 -2.35751,-1.85044 -6.86452,-1.85044 h -3.4669 l 0.76264,-4.86597 h 2.35751 q 3.60564,0 5.96315,-2.12457 2.42688,-2.12458 2.42688,-5.96253 0,-3.22113 -2.08025,-5.07157 -2.08014,-1.91897 -5.6164,-1.91897 -2.70414,0 -4.99228,0.95949 -2.21888,0.95948 -4.57639,3.1526 l -3.32826,-3.76941 q 5.89377,-5.41425 13.24367,-5.41425 z"
         style="font-style:normal;font-variant:normal;font-weight:normal;font-stretch:normal;font-size:192px;line-height:1.25;font-family:'Fira Sans';-inkscape-font-specification:'Fira Sans, Normal';font-variant-ligatures:normal;font-variant-caps:normal;font-variant-numeric:normal;font-feature-settings:normal;text-align:start;letter-spacing:0px;word-spacing:0px;writing-mode:lr-tb;text-anchor:start;fill:#00d1ff;fill-opacity:1;stroke:none;stroke-width:0.35903838"
         id="path1252"
         inkscape:connector-curvature="0" />
      <path
         d="m 892.9434,202.08458 q 10.8168,0 17.33458,5.00304 6.58715,4.9345 6.58715,18.36732 0,13.09013 -6.58715,18.50437 -6.51778,5.34571 -15.87845,5.34571 h -11.44081 v -47.22044 z m -3.39752,5.20864 v 36.8717 h 5.33902 q 6.65653,0 10.8168,-4.04355 4.16027,-4.04355 4.16027,-14.66643 0,-7.47029 -2.1495,-11.44531 -2.14951,-4.04355 -5.47766,-5.34571 -3.32826,-1.3707 -7.83528,-1.3707 z"
         style="font-style:normal;font-variant:normal;font-weight:normal;font-stretch:normal;font-size:192px;line-height:1.25;font-family:'Fira Sans';-inkscape-font-specification:'Fira Sans, Normal';font-variant-ligatures:normal;font-variant-caps:normal;font-variant-numeric:normal;font-feature-settings:normal;text-align:start;letter-spacing:0px;word-spacing:0px;writing-mode:lr-tb;text-anchor:start;fill:#00d1ff;fill-opacity:1;stroke:none;stroke-width:0.35903838"
         id="path1254"
         inkscape:connector-curvature="0" />
      <path
         d="m 941.7654,249.30502 h -7.07253 L 919.2998,202.08458 h 7.07253 l 11.99555,40.16137 11.99555,-40.16137 h 6.65641 z"
         style="font-style:normal;font-variant:normal;font-weight:normal;font-stretch:normal;font-size:192px;line-height:1.25;font-family:'Fira Sans';-inkscape-font-specification:'Fira Sans, Normal';font-variant-ligatures:normal;font-variant-caps:normal;font-variant-numeric:normal;font-feature-settings:normal;text-align:start;letter-spacing:0px;word-spacing:0px;writing-mode:lr-tb;text-anchor:start;fill:#646464;fill-opacity:1;stroke:none;stroke-width:0.35903838"
         id="path1256"
         inkscape:connector-curvature="0" />
      <path
         d="m 1003.3701,243.61664 h 19.6228 l -0.7627,5.68838 h -25.44712 v -47.22044 h 6.58702 z"
         style="font-style:normal;font-variant:normal;font-weight:normal;font-stretch:normal;font-size:192px;line-height:1.25;font-family:'Fira Sans';-inkscape-font-specification:'Fira Sans, Normal';font-variant-ligatures:normal;font-variant-caps:normal;font-variant-numeric:normal;font-feature-settings:normal;text-align:start;letter-spacing:0px;word-spacing:0px;writing-mode:lr-tb;text-anchor:start;fill:#646464;fill-opacity:1;stroke:none;stroke-width:0.35903838"
         id="path1258"
         inkscape:connector-curvature="0" />
      <path
         d="m 1045.9178,201.26216 q 6.0324,0 10.5394,2.87847 4.5763,2.80992 7.0724,8.29271 2.5656,5.48278 2.5656,13.29573 0,7.67589 -2.5656,13.15867 -2.4961,5.48278 -7.0724,8.36124 -4.507,2.87846 -10.5394,2.87846 -6.0325,0 -10.6088,-2.80992 -4.507,-2.80992 -7.0725,-8.2927 -2.4962,-5.48278 -2.4962,-13.22722 0,-7.60735 2.4962,-13.15866 2.5655,-5.55132 7.1419,-8.42978 4.5762,-2.947 10.5394,-2.947 z m 0,5.34572 q -6.2405,0 -9.7074,4.66036 -3.4669,4.66037 -3.4669,14.52936 0,9.80048 3.4669,14.3923 3.5362,4.59183 9.7074,4.59183 13.1742,0 13.1742,-19.05266 0,-19.12119 -13.1742,-19.12119 z"
         style="font-style:normal;font-variant:normal;font-weight:normal;font-stretch:normal;font-size:192px;line-height:1.25;font-family:'Fira Sans';-inkscape-font-specification:'Fira Sans, Normal';font-variant-ligatures:normal;font-variant-caps:normal;font-variant-numeric:normal;font-feature-settings:normal;text-align:start;letter-spacing:0px;word-spacing:0px;writing-mode:lr-tb;text-anchor:start;fill:#646464;fill-opacity:1;stroke:none;stroke-width:0.35903838"
         id="path1260"
         inkscape:connector-curvature="0" />
      <path
         d="m 1086.1834,202.08458 q 8.8753,0 13.7291,3.70088 4.8536,3.63235 4.8536,10.89702 0,7.74444 -5.0616,11.51384 -5.0618,3.76942 -13.4517,3.76942 h -6.0324 v 17.33928 h -6.5872 v -47.22044 z m -0.208,24.74105 q 5.7551,0 8.7367,-2.19311 3.0508,-2.19311 3.0508,-7.8815 0,-5.07157 -3.0508,-7.33321 -2.9816,-2.26166 -8.598,-2.26166 h -5.8937 v 19.66948 z"
         style="font-style:normal;font-variant:normal;font-weight:normal;font-stretch:normal;font-size:192px;line-height:1.25;font-family:'Fira Sans';-inkscape-font-specification:'Fira Sans, Normal';font-variant-ligatures:normal;font-variant-caps:normal;font-variant-numeric:normal;font-feature-settings:normal;text-align:start;letter-spacing:0px;word-spacing:0px;writing-mode:lr-tb;text-anchor:start;fill:#646464;fill-opacity:1;stroke:none;stroke-width:0.35903838"
         id="path1262"
         inkscape:connector-curvature="0" />
      <path
         inkscape:connector-curvature="0"
         id="path1264"
         style="font-style:normal;font-variant:normal;font-weight:normal;font-stretch:normal;font-size:192px;line-height:1.25;font-family:'Fira Sans';-inkscape-font-specification:'Fira Sans, Normal';font-variant-ligatures:normal;font-variant-caps:normal;font-variant-numeric:normal;font-feature-settings:normal;text-align:start;letter-spacing:0px;word-spacing:0px;writing-mode:lr-tb;text-anchor:start;fill:#646464;fill-opacity:1;stroke:none;stroke-width:0.35903838"
         d="m 975.70786,202.19167 q -4.29901,0 -7.3499,1.5763 -3.12026,1.57631 -4.71502,4.24916 -1.66413,2.67285 -1.66413,5.82546 0,4.18061 2.49614,6.922 2.42688,2.67286 6.51789,3.63235 -4.64565,0.4112 -7.5579,3.28966 -2.91226,2.87846 -2.91226,7.81297 0,3.97501 1.9415,7.19614 1.94151,3.22114 5.54703,5.07157 3.60564,1.78191 8.32066,1.78191 4.22964,0 7.76591,-1.50777 3.53626,-1.57629 6.17092,-4.66037 l -3.81341,-3.49527 q -2.28825,2.33019 -4.64565,3.42674 -2.42688,1.09657 -5.26977,1.09657 -4.36827,0 -6.86453,-2.39872 -2.49614,-2.46725 -2.49614,-6.57934 0,-4.52329 2.35751,-6.37373 2.35751,-1.85044 6.86453,-1.85044 h 3.46689 l -0.76275,-4.86596 h -2.35751 q -3.60552,0 -5.96303,-2.12459 -2.42688,-2.12457 -2.42688,-5.96252 0,-3.22113 2.08013,-5.07157 2.08014,-1.91898 5.6164,-1.91898 2.70426,0 4.9924,0.95949 2.21877,0.95949 4.57627,3.15261 l 3.32827,-3.76942 q -5.89378,-5.41425 -13.24357,-5.41425 z" />
      <g
         transform="translate(390.0234,-262.40273)"
         id="g1280">
        <path
           inkscape:connector-curvature="0"
           id="path1268"
           d="m 401.6489,528.88286 32.7882,-32.78821 -7.9971,-7.99712 -24.7911,24.79109 -32.7882,-32.78821 v 15.99424 z"
           style="opacity:1;fill:#646464;fill-opacity:1;stroke-width:0.188494" />
        <path
           inkscape:connector-curvature="0"
           id="path1270"
           d="m 401.6489,528.88284 h 15.9942 l 32.7882,-32.7882 -32.7882,-32.78821 -7.9971,7.99713 24.7911,24.79108 z"
           style="opacity:1;fill:#00d1ff;fill-opacity:1;stroke-width:0.188494" />
        <path
           inkscape:connector-curvature="0"
           id="path1272"
           d="m 401.6489,512.8886 7.9971,-7.99712 -24.7911,-24.79108 32.7882,-32.7882 h -15.9942 l -32.7882,32.7882 z"
           style="opacity:1;fill:#00d1ff;fill-opacity:1;stroke-width:0.188494" />
        <path
           inkscape:connector-curvature="0"
           style="opacity:1;fill:#646464;fill-opacity:1;stroke-width:0.188494"
           d="m 417.6431,447.31219 -32.7882,32.78821 7.9971,7.99713 24.7911,-24.79109 32.7882,32.78821 v -15.99424 z"
           id="path1274" />
      </g>
    </g>
    <rect
       style="opacity:1;fill:none;fill-opacity:1;stroke:#646464;stroke-width:6.5;stroke-miterlimit:4;stroke-dasharray:none;stroke-opacity:1"
       id="rect1289"
       width="398.46249"
       height="122.50208"
       x="731.7052"
       y="164.44376" />
  </g>
</svg>
